<?xml version="1.0"?>
<!-- Created by MetaPost 2.02 on 2023.07.30:0532 -->
<svg version="1.1" xmlns="http://www.w3.org/2000/svg" xmlns:xlink="http://www.w3.org/1999/xlink" width="128.560425" height="217.602722" viewBox="0 0 128.560425 217.602722">
<!-- Original BoundingBox: -43.020142 -140.816467 85.540283 76.786255 -->
  <defs>
    <g transform="scale(0.009963,0.009963)" id="GLYPHcmr10_49">
      <path style="fill-rule: evenodd;" d="M294.000000 -640.000000C294.000000 -664.000000,294.000000 -666.000000,271.000000 -666.000000C209.000000 -602.000000,121.000000 -602.000000,89.000000 -602.000000L89.000000 -571.000000C109.000000 -571.000000,168.000000 -571.000000,220.000000 -597.000000L220.000000 -79.000000C220.000000 -43.000000,217.000000 -31.000000,127.000000 -31.000000L95.000000 -31.000000L95.000000 -0.000000C130.000000 -3.000000,217.000000 -3.000000,257.000000 -3.000000C297.000000 -3.000000,384.000000 -3.000000,419.000000 -0.000000L419.000000 -31.000000L387.000000 -31.000000C297.000000 -31.000000,294.000000 -42.000000,294.000000 -79.000000"></path>
    </g>
    <g transform="scale(0.009963,0.009963)" id="GLYPHcmmi10_109">
      <path style="fill-rule: evenodd;" d="M88.000000 -59.000000C85.000000 -44.000000,79.000000 -21.000000,79.000000 -16.000000C79.000000 2.000000,93.000000 11.000000,108.000000 11.000000C120.000000 11.000000,138.000000 3.000000,145.000000 -17.000000C146.000000 -19.000000,158.000000 -66.000000,164.000000 -91.000000L186.000000 -181.000000C192.000000 -203.000000,198.000000 -225.000000,203.000000 -248.000000C207.000000 -265.000000,215.000000 -294.000000,216.000000 -298.000000C231.000000 -329.000000,284.000000 -420.000000,379.000000 -420.000000C424.000000 -420.000000,433.000000 -383.000000,433.000000 -350.000000C433.000000 -325.000000,426.000000 -297.000000,418.000000 -267.000000L390.000000 -151.000000L370.000000 -75.000000C366.000000 -55.000000,357.000000 -21.000000,357.000000 -16.000000C357.000000 2.000000,371.000000 11.000000,386.000000 11.000000C417.000000 11.000000,423.000000 -14.000000,431.000000 -46.000000C445.000000 -102.000000,482.000000 -248.000000,491.000000 -287.000000C494.000000 -300.000000,547.000000 -420.000000,656.000000 -420.000000C699.000000 -420.000000,710.000000 -386.000000,710.000000 -350.000000C710.000000 -293.000000,668.000000 -179.000000,648.000000 -126.000000C639.000000 -102.000000,635.000000 -91.000000,635.000000 -71.000000C635.000000 -24.000000,670.000000 11.000000,717.000000 11.000000C811.000000 11.000000,848.000000 -135.000000,848.000000 -143.000000C848.000000 -153.000000,839.000000 -153.000000,836.000000 -153.000000C826.000000 -153.000000,826.000000 -150.000000,821.000000 -135.000000C806.000000 -82.000000,774.000000 -11.000000,719.000000 -11.000000C702.000000 -11.000000,695.000000 -21.000000,695.000000 -44.000000C695.000000 -69.000000,704.000000 -93.000000,713.000000 -115.000000C732.000000 -167.000000,774.000000 -278.000000,774.000000 -335.000000C774.000000 -400.000000,734.000000 -442.000000,659.000000 -442.000000C584.000000 -442.000000,533.000000 -398.000000,496.000000 -345.000000C495.000000 -358.000000,492.000000 -392.000000,464.000000 -416.000000C439.000000 -437.000000,407.000000 -442.000000,382.000000 -442.000000C292.000000 -442.000000,243.000000 -378.000000,226.000000 -355.000000C221.000000 -412.000000,179.000000 -442.000000,134.000000 -442.000000C88.000000 -442.000000,69.000000 -403.000000,60.000000 -385.000000C42.000000 -350.000000,29.000000 -291.000000,29.000000 -288.000000C29.000000 -278.000000,39.000000 -278.000000,41.000000 -278.000000C51.000000 -278.000000,52.000000 -279.000000,58.000000 -301.000000C75.000000 -372.000000,95.000000 -420.000000,131.000000 -420.000000C147.000000 -420.000000,162.000000 -412.000000,162.000000 -374.000000C162.000000 -353.000000,159.000000 -342.000000,146.000000 -290.000000"></path>
    </g>
    <g transform="scale(0.009963,0.009963)" id="GLYPHcmbx10_78">
      <path style="fill-rule: evenodd;" d="M301.000000 -673.000000C290.000000 -685.000000,289.000000 -686.000000,268.000000 -686.000000L39.000000 -686.000000L39.000000 -639.000000L147.000000 -639.000000L147.000000 -76.000000C147.000000 -54.000000,146.000000 -53.000000,118.000000 -50.000000C94.000000 -47.000000,92.000000 -47.000000,64.000000 -47.000000L39.000000 -47.000000L39.000000 -0.000000C77.000000 -3.000000,134.000000 -3.000000,173.000000 -3.000000C215.000000 -3.000000,267.000000 -3.000000,308.000000 -0.000000L308.000000 -47.000000L283.000000 -47.000000C265.000000 -47.000000,248.000000 -48.000000,230.000000 -50.000000C201.000000 -53.000000,200.000000 -54.000000,200.000000 -76.000000L200.000000 -599.000000L698.000000 -13.000000C708.000000 -1.000000,709.000000 -0.000000,725.000000 -0.000000C752.000000 -0.000000,752.000000 -9.000000,752.000000 -32.000000L752.000000 -610.000000C752.000000 -632.000000,753.000000 -633.000000,781.000000 -636.000000C805.000000 -639.000000,807.000000 -639.000000,835.000000 -639.000000L860.000000 -639.000000L860.000000 -686.000000C822.000000 -683.000000,765.000000 -683.000000,726.000000 -683.000000C684.000000 -683.000000,632.000000 -683.000000,591.000000 -686.000000L591.000000 -639.000000L616.000000 -639.000000C634.000000 -639.000000,651.000000 -638.000000,669.000000 -636.000000C698.000000 -633.000000,699.000000 -632.000000,699.000000 -610.000000L699.000000 -205.000000"></path>
    </g>
    <g transform="scale(0.009963,0.009963)" id="GLYPHcmbx10_80">
      <path style="fill-rule: evenodd;" d="M289.000000 -302.000000L466.000000 -302.000000C605.000000 -302.000000,721.000000 -374.000000,721.000000 -491.000000C721.000000 -601.000000,622.000000 -686.000000,456.000000 -686.000000L39.000000 -686.000000L39.000000 -639.000000L147.000000 -639.000000L147.000000 -47.000000L39.000000 -47.000000L39.000000 -0.000000C77.000000 -3.000000,175.000000 -3.000000,218.000000 -3.000000C261.000000 -3.000000,359.000000 -3.000000,397.000000 -0.000000L397.000000 -47.000000L289.000000 -47.000000M417.000000 -343.000000L283.000000 -343.000000L283.000000 -639.000000L418.000000 -639.000000C568.000000 -639.000000,568.000000 -563.000000,568.000000 -491.000000C568.000000 -420.000000,568.000000 -343.000000,417.000000 -343.000000"></path>
    </g>
    <g transform="scale(0.009963,0.009963)" id="GLYPHcmbx10_97">
      <path style="fill-rule: evenodd;" d="M374.000000 -77.000000C374.000000 -46.000000,374.000000 -0.000000,478.000000 -0.000000L526.000000 -0.000000C546.000000 -0.000000,558.000000 -0.000000,558.000000 -24.000000C558.000000 -47.000000,545.000000 -47.000000,532.000000 -47.000000C471.000000 -48.000000,471.000000 -61.000000,471.000000 -84.000000L471.000000 -299.000000C471.000000 -388.000000,400.000000 -453.000000,251.000000 -453.000000C194.000000 -453.000000,72.000000 -449.000000,72.000000 -361.000000C72.000000 -317.000000,107.000000 -298.000000,134.000000 -298.000000C165.000000 -298.000000,197.000000 -319.000000,197.000000 -361.000000C197.000000 -391.000000,178.000000 -408.000000,175.000000 -410.000000C203.000000 -416.000000,235.000000 -417.000000,247.000000 -417.000000C322.000000 -417.000000,357.000000 -375.000000,357.000000 -299.000000L357.000000 -265.000000C286.000000 -262.000000,32.000000 -253.000000,32.000000 -108.000000C32.000000 -12.000000,156.000000 6.000000,225.000000 6.000000C305.000000 6.000000,352.000000 -35.000000,374.000000 -77.000000M357.000000 -234.000000L357.000000 -139.000000C357.000000 -43.000000,265.000000 -30.000000,240.000000 -30.000000C189.000000 -30.000000,149.000000 -65.000000,149.000000 -109.000000C149.000000 -217.000000,307.000000 -231.000000,357.000000 -234.000000"></path>
    </g>
    <g transform="scale(0.009963,0.009963)" id="GLYPHcmbx10_101">
      <path style="fill-rule: evenodd;" d="M462.000000 -218.000000C484.000000 -218.000000,494.000000 -218.000000,494.000000 -245.000000C494.000000 -276.000000,488.000000 -349.000000,438.000000 -399.000000C401.000000 -435.000000,348.000000 -453.000000,279.000000 -453.000000C119.000000 -453.000000,32.000000 -350.000000,32.000000 -225.000000C32.000000 -91.000000,132.000000 6.000000,293.000000 6.000000C451.000000 6.000000,494.000000 -100.000000,494.000000 -117.000000C494.000000 -135.000000,475.000000 -135.000000,470.000000 -135.000000C453.000000 -135.000000,451.000000 -130.000000,445.000000 -114.000000C424.000000 -66.000000,367.000000 -34.000000,302.000000 -34.000000C161.000000 -34.000000,160.000000 -167.000000,160.000000 -218.000000M160.000000 -251.000000C162.000000 -290.000000,163.000000 -332.000000,184.000000 -365.000000C210.000000 -405.000000,250.000000 -417.000000,279.000000 -417.000000C396.000000 -417.000000,398.000000 -286.000000,399.000000 -251.000000"></path>
    </g>
    <g transform="scale(0.009963,0.009963)" id="GLYPHcmbx10_103">
      <path style="fill-rule: evenodd;" d="M255.000000 -190.000000C167.000000 -190.000000,167.000000 -257.000000,167.000000 -302.000000C167.000000 -347.000000,167.000000 -414.000000,255.000000 -414.000000C343.000000 -414.000000,343.000000 -347.000000,343.000000 -302.000000C343.000000 -257.000000,343.000000 -190.000000,255.000000 -190.000000M133.000000 -180.000000C179.000000 -156.000000,230.000000 -154.000000,255.000000 -154.000000C399.000000 -154.000000,454.000000 -232.000000,454.000000 -302.000000C454.000000 -349.000000,429.000000 -382.000000,414.000000 -398.000000C444.000000 -414.000000,465.000000 -416.000000,476.000000 -417.000000C474.000000 -412.000000,472.000000 -403.000000,472.000000 -397.000000C472.000000 -372.000000,489.000000 -354.000000,515.000000 -354.000000C541.000000 -354.000000,558.000000 -373.000000,558.000000 -397.000000C558.000000 -420.000000,541.000000 -455.000000,495.000000 -455.000000C480.000000 -455.000000,433.000000 -452.000000,389.000000 -417.000000C371.000000 -429.000000,329.000000 -450.000000,255.000000 -450.000000C111.000000 -450.000000,56.000000 -372.000000,56.000000 -302.000000C56.000000 -261.000000,76.000000 -220.000000,108.000000 -197.000000C80.000000 -162.000000,74.000000 -129.000000,74.000000 -108.000000C74.000000 -93.000000,78.000000 -44.000000,118.000000 -12.000000C105.000000 -9.000000,32.000000 12.000000,32.000000 75.000000C32.000000 126.000000,87.000000 201.000000,287.000000 201.000000C464.000000 201.000000,542.000000 142.000000,542.000000 72.000000C542.000000 42.000000,534.000000 -21.000000,467.000000 -55.000000C411.000000 -83.000000,351.000000 -83.000000,255.000000 -83.000000C229.000000 -83.000000,183.000000 -83.000000,178.000000 -84.000000C134.000000 -91.000000,123.000000 -129.000000,123.000000 -147.000000C123.000000 -157.000000,127.000000 -172.000000,133.000000 -180.000000M195.000000 13.000000L312.000000 13.000000C343.000000 13.000000,456.000000 13.000000,456.000000 75.000000C456.000000 111.000000,417.000000 165.000000,287.000000 165.000000C167.000000 165.000000,118.000000 119.000000,118.000000 73.000000C118.000000 13.000000,181.000000 13.000000,195.000000 13.000000"></path>
    </g>
    <g transform="scale(0.009963,0.009963)" id="GLYPHcmbx10_105">
      <path style="fill-rule: evenodd;" d="M224.000000 -450.000000L50.000000 -442.000000L50.000000 -395.000000C109.000000 -395.000000,116.000000 -395.000000,116.000000 -356.000000L116.000000 -47.000000L47.000000 -47.000000L47.000000 -0.000000C78.000000 -1.000000,127.000000 -3.000000,169.000000 -3.000000C199.000000 -3.000000,250.000000 -1.000000,286.000000 -0.000000L286.000000 -47.000000L224.000000 -47.000000M234.000000 -617.000000C234.000000 -661.000000,198.000000 -695.000000,156.000000 -695.000000C113.000000 -695.000000,78.000000 -660.000000,78.000000 -617.000000C78.000000 -574.000000,113.000000 -539.000000,156.000000 -539.000000C198.000000 -539.000000,234.000000 -573.000000,234.000000 -617.000000"></path>
    </g>
    <g transform="scale(0.009963,0.009963)" id="GLYPHcmbx10_108">
      <path style="fill-rule: evenodd;" d="M224.000000 -694.000000L47.000000 -686.000000L47.000000 -639.000000C109.000000 -639.000000,116.000000 -639.000000,116.000000 -600.000000L116.000000 -47.000000L47.000000 -47.000000L47.000000 -0.000000C79.000000 -1.000000,127.000000 -3.000000,170.000000 -3.000000C213.000000 -3.000000,259.000000 -1.000000,293.000000 -0.000000L293.000000 -47.000000L224.000000 -47.000000"></path>
    </g>
    <g transform="scale(0.009963,0.009963)" id="GLYPHcmbx10_111">
      <path style="fill-rule: evenodd;" d="M542.000000 -218.000000C542.000000 -352.000000,450.000000 -453.000000,287.000000 -453.000000C123.000000 -453.000000,32.000000 -351.000000,32.000000 -218.000000C32.000000 -94.000000,120.000000 6.000000,287.000000 6.000000C455.000000 6.000000,542.000000 -95.000000,542.000000 -218.000000M287.000000 -34.000000C160.000000 -34.000000,160.000000 -142.000000,160.000000 -229.000000C160.000000 -274.000000,160.000000 -325.000000,177.000000 -359.000000C196.000000 -396.000000,238.000000 -417.000000,287.000000 -417.000000C329.000000 -417.000000,371.000000 -401.000000,393.000000 -366.000000C414.000000 -332.000000,414.000000 -277.000000,414.000000 -229.000000C414.000000 -142.000000,414.000000 -34.000000,287.000000 -34.000000"></path>
    </g>
    <g transform="scale(0.009963,0.009963)" id="GLYPHcmbx10_112">
      <path style="fill-rule: evenodd;" d="M220.000000 -329.000000C220.000000 -348.000000,221.000000 -349.000000,235.000000 -363.000000C275.000000 -404.000000,327.000000 -410.000000,349.000000 -410.000000C416.000000 -410.000000,472.000000 -349.000000,472.000000 -223.000000C472.000000 -82.000000,402.000000 -30.000000,337.000000 -30.000000C323.000000 -30.000000,276.000000 -30.000000,231.000000 -84.000000C220.000000 -97.000000,220.000000 -98.000000,220.000000 -117.000000M220.000000 -39.000000C263.000000 -4.000000,307.000000 6.000000,348.000000 6.000000C498.000000 6.000000,600.000000 -84.000000,600.000000 -223.000000C600.000000 -356.000000,509.000000 -450.000000,365.000000 -450.000000C290.000000 -450.000000,237.000000 -419.000000,214.000000 -401.000000L214.000000 -450.000000L37.000000 -442.000000L37.000000 -395.000000C99.000000 -395.000000,106.000000 -395.000000,106.000000 -357.000000L106.000000 147.000000L37.000000 147.000000L37.000000 194.000000C65.000000 193.000000,125.000000 191.000000,163.000000 191.000000C202.000000 191.000000,261.000000 193.000000,289.000000 194.000000L289.000000 147.000000L220.000000 147.000000"></path>
    </g>
    <g transform="scale(0.009963,0.009963)" id="GLYPHcmbx10_115">
      <path style="fill-rule: evenodd;" d="M211.000000 -294.000000C174.000000 -301.000000,109.000000 -312.000000,109.000000 -359.000000C109.000000 -421.000000,202.000000 -421.000000,221.000000 -421.000000C296.000000 -421.000000,334.000000 -392.000000,339.000000 -337.000000C340.000000 -322.000000,341.000000 -317.000000,362.000000 -317.000000C386.000000 -317.000000,386.000000 -322.000000,386.000000 -345.000000L386.000000 -425.000000C386.000000 -444.000000,386.000000 -453.000000,368.000000 -453.000000C364.000000 -453.000000,362.000000 -453.000000,323.000000 -434.000000C297.000000 -447.000000,262.000000 -453.000000,222.000000 -453.000000C192.000000 -453.000000,38.000000 -453.000000,38.000000 -322.000000C38.000000 -282.000000,58.000000 -255.000000,78.000000 -238.000000C118.000000 -203.000000,156.000000 -197.000000,233.000000 -183.000000C269.000000 -177.000000,344.000000 -164.000000,344.000000 -105.000000C344.000000 -30.000000,252.000000 -30.000000,230.000000 -30.000000C124.000000 -30.000000,98.000000 -103.000000,86.000000 -146.000000C81.000000 -160.000000,76.000000 -160.000000,62.000000 -160.000000C38.000000 -160.000000,38.000000 -154.000000,38.000000 -131.000000L38.000000 -22.000000C38.000000 -3.000000,38.000000 6.000000,56.000000 6.000000C63.000000 6.000000,65.000000 6.000000,86.000000 -9.000000C87.000000 -9.000000,109.000000 -24.000000,112.000000 -26.000000C158.000000 6.000000,210.000000 6.000000,230.000000 6.000000C261.000000 6.000000,415.000000 6.000000,415.000000 -140.000000C415.000000 -183.000000,395.000000 -218.000000,360.000000 -246.000000C321.000000 -275.000000,289.000000 -281.000000,211.000000 -294.000000"></path>
    </g>
    <g transform="scale(0.009963,0.009963)" id="GLYPHcmbx10_116">
      <path style="fill-rule: evenodd;" d="M103.000000 -397.000000L103.000000 -123.000000C103.000000 -16.000000,190.000000 6.000000,261.000000 6.000000C337.000000 6.000000,382.000000 -51.000000,382.000000 -124.000000L382.000000 -177.000000L335.000000 -177.000000L335.000000 -126.000000C335.000000 -58.000000,303.000000 -34.000000,275.000000 -34.000000C217.000000 -34.000000,217.000000 -98.000000,217.000000 -121.000000L217.000000 -397.000000L363.000000 -397.000000L363.000000 -444.000000L217.000000 -444.000000L217.000000 -635.000000L170.000000 -635.000000C169.000000 -535.000000,120.000000 -436.000000,21.000000 -433.000000L21.000000 -397.000000"></path>
    </g>
    <g transform="scale(0.009963,0.009963)" id="GLYPHcmbx10_118">
      <path style="fill-rule: evenodd;" d="M506.000000 -376.000000C512.000000 -390.000000,516.000000 -397.000000,580.000000 -397.000000L580.000000 -444.000000C555.000000 -442.000000,526.000000 -441.000000,501.000000 -441.000000C476.000000 -441.000000,431.000000 -443.000000,410.000000 -444.000000L410.000000 -397.000000C429.000000 -397.000000,458.000000 -394.000000,458.000000 -386.000000C458.000000 -385.000000,457.000000 -383.000000,453.000000 -374.000000L337.000000 -124.000000L210.000000 -397.000000L264.000000 -397.000000L264.000000 -444.000000C231.000000 -442.000000,141.000000 -441.000000,140.000000 -441.000000C112.000000 -441.000000,67.000000 -443.000000,26.000000 -444.000000L26.000000 -397.000000L90.000000 -397.000000L265.000000 -21.000000C277.000000 4.000000,290.000000 4.000000,303.000000 4.000000C320.000000 4.000000,330.000000 1.000000,340.000000 -20.000000"></path>
    </g>
    <g transform="scale(0.009963,0.009963)" id="GLYPHcmsy10_106">
      <path style="fill-rule: evenodd;" d="M159.000000 -714.000000C159.000000 -732.000000,159.000000 -750.000000,139.000000 -750.000000C119.000000 -750.000000,119.000000 -732.000000,119.000000 -714.000000L119.000000 214.000000C119.000000 232.000000,119.000000 250.000000,139.000000 250.000000C159.000000 250.000000,159.000000 232.000000,159.000000 214.000000"></path>
    </g>
  </defs>
  <path d="M0.479858 97.260071L128.040283 33.479858" style="stroke:rgb(0.000000%,0.000000%,0.000000%); stroke-width: 1.000000;stroke-linecap: round;stroke-linejoin: round;stroke-miterlimit: 10.000000;fill: none;"></path>
  <path d="M43.000000 76.000000L85.520142 76.000000L85.520142 54.739929" style="stroke:rgb(0.000000%,0.000000%,0.000000%); stroke-width: 0.699997;stroke-linecap: round;stroke-dasharray: 3.000000 3.000000 ;stroke-linejoin: round;stroke-miterlimit: 10.000000;fill: none;"></path>
  <path d="M43.000000 76.000000l0 0" style="stroke:rgb(0.000000%,0.000000%,0.000000%); stroke-width: 4.000000;stroke-linecap: round;stroke-linejoin: round;stroke-miterlimit: 10.000000;fill: none;"></path>
  <path d="M85.520142 54.739929l0 0" style="stroke:rgb(0.000000%,0.000000%,0.000000%); stroke-width: 4.000000;stroke-linecap: round;stroke-linejoin: round;stroke-miterlimit: 10.000000;fill: none;"></path>
  <g transform="translate(61.769424 85.420395)" style="fill: rgb(0.000000%,0.000000%,0.000000%);">
    <use xlink:href="#GLYPHcmr10_49"></use>
  </g>
  <g transform="translate(88.520142 67.514725)" style="fill: rgb(0.000000%,0.000000%,0.000000%);">
    <use xlink:href="#GLYPHcmmi10_109"></use>
  </g>
  <g transform="translate(27.856628 20.038635)" style="fill: rgb(0.000000%,0.000000%,0.000000%);">
    <use xlink:href="#GLYPHcmbx10_80"></use>
  </g>
  <g transform="translate(35.370132 20.038635)" style="fill: rgb(0.000000%,0.000000%,0.000000%);">
    <use xlink:href="#GLYPHcmbx10_111"></use>
    <use xlink:href="#GLYPHcmbx10_115" x="5.750055"></use>
    <use xlink:href="#GLYPHcmbx10_105" x="10.286205"></use>
    <use xlink:href="#GLYPHcmbx10_116" x="13.480683"></use>
    <use xlink:href="#GLYPHcmbx10_105" x="17.952950"></use>
    <use xlink:href="#GLYPHcmbx10_118" x="21.147428"></use>
  </g>
  <g transform="translate(62.166626 20.038635)" style="fill: rgb(0.000000%,0.000000%,0.000000%);">
    <use xlink:href="#GLYPHcmbx10_101"></use>
  </g>
  <g transform="translate(71.236725 20.038635)" style="fill: rgb(0.000000%,0.000000%,0.000000%);">
    <use xlink:href="#GLYPHcmbx10_115"></use>
    <use xlink:href="#GLYPHcmbx10_108" x="4.536150"></use>
    <use xlink:href="#GLYPHcmbx10_111" x="7.730629"></use>
    <use xlink:href="#GLYPHcmbx10_112" x="13.480683"></use>
  </g>
  <g transform="translate(91.350128 20.038635)" style="fill: rgb(0.000000%,0.000000%,0.000000%);">
    <use xlink:href="#GLYPHcmbx10_101"></use>
  </g>
  <g transform="translate(100.420227 20.038635)" style="fill: rgb(0.000000%,0.000000%,0.000000%);">
    <use xlink:href="#GLYPHcmmi10_109"></use>
  </g>
  <path d="M0.479858 -0.536255L128.040283 -0.536255" style="stroke:rgb(100.000000%,100.000000%,100.000000%); stroke-width: 0.500000;stroke-linecap: round;stroke-linejoin: round;stroke-miterlimit: 10.000000;fill: none;"></path>
  <path d="M0.479858 152.536255L128.040283 216.316467" style="stroke:rgb(0.000000%,0.000000%,0.000000%); stroke-width: 1.000000;stroke-linecap: round;stroke-linejoin: round;stroke-miterlimit: 10.000000;fill: none;"></path>
  <path d="M43.000000 173.796326L85.520142 173.796326L85.520142 195.056396" style="stroke:rgb(0.000000%,0.000000%,0.000000%); stroke-width: 0.699997;stroke-linecap: round;stroke-dasharray: 3.000000 3.000000 ;stroke-linejoin: round;stroke-miterlimit: 10.000000;fill: none;"></path>
  <path d="M43.000000 173.796326l0 0" style="stroke:rgb(0.000000%,0.000000%,0.000000%); stroke-width: 4.000000;stroke-linecap: round;stroke-linejoin: round;stroke-miterlimit: 10.000000;fill: none;"></path>
  <path d="M85.520142 195.056396l0 0" style="stroke:rgb(0.000000%,0.000000%,0.000000%); stroke-width: 4.000000;stroke-linecap: round;stroke-linejoin: round;stroke-miterlimit: 10.000000;fill: none;"></path>
  <g transform="translate(61.769424 170.460678)" style="fill: rgb(0.000000%,0.000000%,0.000000%);">
    <use xlink:href="#GLYPHcmr10_49"></use>
  </g>
  <g transform="translate(88.520142 186.917007)" style="fill: rgb(0.000000%,0.000000%,0.000000%);">
    <use xlink:href="#GLYPHcmsy10_106"></use>
  </g>
  <g transform="translate(91.287537 186.917007)" style="fill: rgb(0.000000%,0.000000%,0.000000%);">
    <use xlink:href="#GLYPHcmmi10_109"></use>
  </g>
  <g transform="translate(100.034836 186.917007)" style="fill: rgb(0.000000%,0.000000%,0.000000%);">
    <use xlink:href="#GLYPHcmsy10_106"></use>
  </g>
  <g transform="translate(23.019485 139.095032)" style="fill: rgb(0.000000%,0.000000%,0.000000%);">
    <use xlink:href="#GLYPHcmbx10_78"></use>
    <use xlink:href="#GLYPHcmbx10_101" x="9.000100"></use>
    <use xlink:href="#GLYPHcmbx10_103" x="14.271002"></use>
    <use xlink:href="#GLYPHcmbx10_97" x="20.021056"></use>
    <use xlink:href="#GLYPHcmbx10_116" x="25.611378"></use>
    <use xlink:href="#GLYPHcmbx10_105" x="30.083644"></use>
    <use xlink:href="#GLYPHcmbx10_118" x="33.278122"></use>
  </g>
  <g transform="translate(61.901291 139.095032)" style="fill: rgb(0.000000%,0.000000%,0.000000%);">
    <use xlink:href="#GLYPHcmbx10_101"></use>
  </g>
  <g transform="translate(70.971390 139.095032)" style="fill: rgb(0.000000%,0.000000%,0.000000%);">
    <use xlink:href="#GLYPHcmbx10_115"></use>
    <use xlink:href="#GLYPHcmbx10_108" x="4.536150"></use>
    <use xlink:href="#GLYPHcmbx10_111" x="7.730629"></use>
    <use xlink:href="#GLYPHcmbx10_112" x="13.480683"></use>
  </g>
  <g transform="translate(91.084686 139.095032)" style="fill: rgb(0.000000%,0.000000%,0.000000%);">
    <use xlink:href="#GLYPHcmbx10_101"></use>
  </g>
  <g transform="translate(100.154785 139.095032)" style="fill: rgb(0.000000%,0.000000%,0.000000%);">
    <use xlink:href="#GLYPHcmmi10_109"></use>
  </g>
  <path d="M0.479858 212.064453L128.040283 212.064453" style="stroke:rgb(100.000000%,100.000000%,100.000000%); stroke-width: 0.500000;stroke-linecap: round;stroke-linejoin: round;stroke-miterlimit: 10.000000;fill: none;"></path>
</svg>
